<svg xmlns="http://www.w3.org/2000/svg" viewBox="0 0 400 300" fill="none" id="icon-404">
<path d="M108.37 237V204.134H128.29V176.247H108.37V63.2061H63.0546L6.7832 173.757V204.134H74.7571V237H108.37ZM70.7732 98.8114H74.7571V176.247H33.674L70.7732 98.8114Z" fill="url(#icon-404_paint0_linear)"></path>
<path d="M373.287 237V204.134H393.207V176.247H373.287V63.2061H327.972L271.7 173.757V204.134H339.674V237H373.287ZM335.69 98.8114H339.674V176.247H298.591L335.69 98.8114Z" fill="url(#icon-404_paint1_linear)"></path>
<path fill-rule="evenodd" clip-rule="evenodd" d="M143.225 185.605L145.199 185.282C145.095 184.647 144.994 184.006 144.897 183.358L142.919 183.655C143.018 184.312 143.12 184.962 143.225 185.605ZM142.505 180.715L144.488 180.455C144.404 179.814 144.323 179.168 144.245 178.516L142.259 178.753C142.338 179.413 142.42 180.067 142.505 180.715ZM141.931 175.804L143.921 175.599C143.854 174.955 143.791 174.306 143.73 173.651L141.739 173.836C141.8 174.497 141.864 175.153 141.931 175.804ZM141.486 170.878L143.48 170.722C143.43 170.076 143.382 169.426 143.337 168.77L141.342 168.908C141.387 169.57 141.435 170.226 141.486 170.878ZM141.156 165.94L143.153 165.828C143.117 165.182 143.083 164.532 143.051 163.877L141.054 163.973C141.085 164.633 141.12 165.289 141.156 165.94ZM140.928 160.993L142.927 160.92C142.903 160.276 142.882 159.627 142.863 158.973L140.864 159.032C140.883 159.69 140.904 160.344 140.928 160.993ZM140.792 156.04L142.792 156.002C142.78 155.359 142.769 154.711 142.761 154.059L140.762 154.084C140.77 154.74 140.78 155.392 140.792 156.04ZM140.739 151.108L142.739 151.102C142.738 150.77 142.737 150.437 142.737 150.104C142.737 149.77 142.738 149.437 142.739 149.105L140.739 149.099C140.738 149.433 140.737 149.768 140.737 150.104C140.737 150.439 140.738 150.774 140.739 151.108ZM140.762 146.123L142.761 146.148C142.769 145.496 142.78 144.849 142.792 144.205L140.792 144.168C140.78 144.815 140.77 145.467 140.762 146.123ZM140.864 141.176L142.863 141.234C142.882 140.581 142.903 139.932 142.927 139.287L140.928 139.214C140.904 139.864 140.883 140.517 140.864 141.176ZM141.054 136.234L143.051 136.33C143.083 135.675 143.117 135.025 143.153 134.379L141.156 134.267C141.12 134.918 141.085 135.574 141.054 136.234ZM141.341 131.299L143.337 131.437C143.382 130.781 143.43 130.131 143.48 129.485L141.486 129.33C141.435 129.981 141.387 130.638 141.341 131.299ZM141.739 126.372L143.73 126.556C143.791 125.901 143.854 125.252 143.921 124.608L141.931 124.403C141.864 125.054 141.8 125.71 141.739 126.372ZM142.259 121.454L144.245 121.692C144.323 121.039 144.404 120.393 144.488 119.752L142.505 119.492C142.42 120.14 142.338 120.794 142.259 121.454ZM142.919 116.552L144.897 116.849C144.994 116.201 145.095 115.56 145.199 114.925L143.225 114.602C143.12 115.246 143.018 115.896 142.919 116.552ZM143.737 111.673L145.703 112.038C145.822 111.398 145.944 110.764 146.071 110.137L144.11 109.742C143.982 110.379 143.857 111.023 143.737 111.673ZM144.733 106.83L146.684 107.272C146.827 106.641 146.974 106.017 147.125 105.4L145.183 104.924C145.029 105.552 144.879 106.187 144.733 106.83ZM145.933 102.038L147.862 102.569C148.035 101.94 148.212 101.32 148.394 100.707L146.477 100.138C146.291 100.763 146.11 101.396 145.933 102.038ZM147.365 97.3183L149.262 97.9502C149.47 97.3276 149.682 96.7142 149.899 96.1098L148.017 95.4332C147.794 96.0528 147.577 96.6811 147.365 97.3183ZM149.071 92.6639L150.926 93.4112C151.168 92.8112 151.415 92.2209 151.668 91.6402L149.834 90.8427C149.574 91.4404 149.32 92.0474 149.071 92.6639ZM151.077 88.1438L152.874 89.0212C153.157 88.4426 153.445 87.8744 153.74 87.3166L151.971 86.3832C151.667 86.9599 151.369 87.5467 151.077 88.1438ZM153.418 83.7987L155.138 84.8203C155.466 84.2669 155.802 83.7249 156.144 83.194L154.462 82.1111C154.107 82.6625 153.759 83.2251 153.418 83.7987ZM156.139 79.6632L157.755 80.8408C158.13 80.3263 158.512 79.8236 158.901 79.3325L157.333 78.0908C156.927 78.6032 156.529 79.1274 156.139 79.6632ZM159.246 75.8253L160.732 77.164C161.156 76.6929 161.588 76.234 162.028 75.787L160.603 74.3843C160.142 74.8524 159.69 75.3327 159.246 75.8253ZM162.753 72.3412L164.081 73.8372C164.552 73.419 165.031 73.0128 165.519 72.6185L164.262 71.0631C163.75 71.4767 163.247 71.9027 162.753 72.3412ZM166.632 69.2801L167.778 70.919C168.293 70.5588 168.817 70.2104 169.349 69.8734L168.279 68.1836C167.721 68.5368 167.172 68.9023 166.632 69.2801ZM170.839 66.6825L171.792 68.441C172.342 68.1427 172.902 67.8554 173.47 67.5791L172.595 65.7806C172.001 66.0696 171.416 66.3702 170.839 66.6825ZM175.302 64.5694L176.061 66.4197C176.643 66.1811 177.233 65.9528 177.832 65.7348L177.148 63.8554C176.524 64.0824 175.909 64.3204 175.302 64.5694ZM179.966 62.9216L180.541 64.8371C181.144 64.6561 181.754 64.4847 182.374 64.3227L181.868 62.3878C181.226 62.5557 180.592 62.7336 179.966 62.9216ZM184.754 61.711L185.162 63.6689C185.782 63.5396 186.41 63.4191 187.046 63.3073L186.699 61.3375C186.043 61.4529 185.395 61.5774 184.754 61.711ZM189.638 60.8877L189.898 62.8707C190.524 62.7886 191.158 62.7143 191.799 62.6477L191.592 60.6584C190.934 60.7268 190.282 60.8032 189.638 60.8877ZM194.548 60.4086L194.679 62.4042C195.32 62.362 195.967 62.327 196.621 62.2992L196.537 60.301C195.867 60.3295 195.204 60.3653 194.548 60.4086ZM199.492 60.2239C199.825 60.2205 200.159 60.2188 200.495 60.2188C200.83 60.2188 201.164 60.2205 201.497 60.2239L201.476 62.2238C201.15 62.2204 200.823 62.2188 200.495 62.2188C200.166 62.2188 199.839 62.2204 199.513 62.2238L199.492 60.2239ZM204.452 60.301L204.368 62.2992C205.022 62.327 205.669 62.362 206.31 62.4042L206.441 60.4086C205.785 60.3653 205.122 60.3295 204.452 60.301ZM209.397 60.6584L209.19 62.6477C209.831 62.7143 210.465 62.7886 211.091 62.8707L211.351 60.8877C210.707 60.8032 210.055 60.7268 209.397 60.6584ZM214.29 61.3375L213.944 63.3073C214.579 63.4191 215.207 63.5396 215.827 63.6689L216.235 61.711C215.594 61.5774 214.946 61.4529 214.29 61.3375ZM219.121 62.3878L218.615 64.3227C219.235 64.4847 219.845 64.6561 220.448 64.8371L221.023 62.9216C220.397 62.7336 219.763 62.5557 219.121 62.3878ZM223.841 63.8554L223.157 65.7348C223.756 65.9528 224.346 66.1811 224.928 66.4197L225.687 64.5694C225.08 64.3204 224.465 64.0824 223.841 63.8554ZM228.394 65.7806L227.519 67.5791C228.087 67.8554 228.647 68.1427 229.197 68.441L230.15 66.6825C229.573 66.3702 228.988 66.0696 228.394 65.7806ZM232.71 68.1836L231.64 69.8734C232.173 70.2103 232.696 70.5588 233.211 70.919L234.357 69.2801C233.817 68.9023 233.268 68.5368 232.71 68.1836ZM236.727 71.063L235.47 72.6185C235.958 73.0128 236.437 73.419 236.908 73.8372L238.236 72.3411C237.742 71.9027 237.239 71.4766 236.727 71.063ZM240.386 74.3843L238.961 75.7869C239.401 76.234 239.833 76.6929 240.257 77.1639L241.743 75.8253C241.299 75.3327 240.847 74.8524 240.386 74.3843ZM243.656 78.0908L242.088 79.3325C242.477 79.8236 242.859 80.3263 243.234 80.8407L244.85 79.6632C244.46 79.1273 244.062 78.6032 243.656 78.0908ZM246.527 82.1111L244.846 83.194C245.187 83.7249 245.523 84.2669 245.851 84.8202L247.571 83.7987C247.23 83.225 246.882 82.6625 246.527 82.1111ZM249.018 86.3832L247.249 87.3166C247.544 87.8744 247.832 88.4426 248.115 89.0212L249.912 88.1438C249.62 87.5467 249.322 86.9599 249.018 86.3832ZM251.156 90.8427L249.321 91.6401C249.574 92.2208 249.821 92.8112 250.063 93.4112L251.918 92.6638C251.669 92.0474 251.415 91.4403 251.156 90.8427ZM252.972 95.4332L251.09 96.1097C251.307 96.7142 251.52 97.3276 251.727 97.9502L253.624 97.3183C253.412 96.6811 253.195 96.0527 252.972 95.4332ZM254.512 100.138L252.595 100.707C252.777 101.32 252.954 101.94 253.127 102.569L255.056 102.038C254.879 101.396 254.698 100.763 254.512 100.138ZM255.806 104.924L253.864 105.4C254.015 106.017 254.162 106.641 254.305 107.272L256.256 106.83C256.11 106.187 255.96 105.552 255.806 104.924ZM256.879 109.742L254.918 110.137C255.045 110.764 255.167 111.398 255.286 112.038L257.253 111.673C257.132 111.023 257.007 110.379 256.879 109.742ZM257.764 114.602L255.79 114.925C255.894 115.56 255.995 116.201 256.092 116.849L258.07 116.552C257.971 115.896 257.869 115.246 257.764 114.602ZM258.484 119.492L256.501 119.752C256.585 120.393 256.666 121.039 256.744 121.691L258.73 121.454C258.651 120.794 258.569 120.14 258.484 119.492ZM259.058 124.403L257.068 124.608C257.135 125.252 257.198 125.901 257.259 126.556L259.25 126.372C259.189 125.71 259.125 125.054 259.058 124.403ZM259.503 129.329L257.509 129.485C257.559 130.131 257.607 130.781 257.652 131.437L259.648 131.299C259.602 130.638 259.554 129.981 259.503 129.329ZM259.833 134.267L257.836 134.379C257.872 135.025 257.906 135.675 257.938 136.33L259.935 136.234C259.904 135.574 259.87 134.918 259.833 134.267ZM260.061 139.214L258.062 139.287C258.086 139.932 258.107 140.581 258.126 141.234L260.125 141.176C260.106 140.517 260.085 139.864 260.061 139.214ZM260.197 144.168L258.197 144.205C258.21 144.848 258.22 145.496 258.228 146.148L260.228 146.123C260.219 145.467 260.209 144.815 260.197 144.168ZM260.25 149.099L258.25 149.105C258.251 149.437 258.252 149.77 258.252 150.104C258.252 150.437 258.251 150.77 258.25 151.102L260.25 151.108C260.251 150.774 260.252 150.439 260.252 150.104C260.252 149.768 260.251 149.433 260.25 149.099ZM260.228 154.084L258.228 154.059C258.22 154.711 258.21 155.359 258.197 156.002L260.197 156.04C260.209 155.392 260.219 154.74 260.228 154.084ZM260.125 159.032L258.126 158.973C258.107 159.627 258.086 160.276 258.062 160.92L260.061 160.993C260.085 160.343 260.106 159.69 260.125 159.032ZM259.935 163.973L257.938 163.877C257.906 164.532 257.872 165.182 257.836 165.828L259.833 165.94C259.87 165.289 259.904 164.633 259.935 163.973ZM259.648 168.908L257.652 168.77C257.607 169.426 257.559 170.076 257.509 170.722L259.503 170.878C259.554 170.226 259.602 169.569 259.648 168.908ZM259.25 173.836L257.259 173.651C257.198 174.306 257.135 174.955 257.068 175.599L259.058 175.804C259.125 175.153 259.189 174.497 259.25 173.836ZM258.73 178.753L256.744 178.516C256.666 179.168 256.585 179.814 256.501 180.455L258.484 180.715C258.569 180.067 258.651 179.413 258.73 178.753ZM258.07 183.655L256.092 183.358C255.995 184.006 255.894 184.647 255.79 185.282L257.764 185.605C257.869 184.962 257.971 184.312 258.07 183.655ZM257.253 188.534L255.286 188.169C255.167 188.809 255.045 189.443 254.918 190.07L256.879 190.465C257.007 189.828 257.132 189.184 257.253 188.534ZM256.256 193.377L254.305 192.935C254.162 193.566 254.015 194.19 253.864 194.807L255.806 195.284C255.96 194.655 256.11 194.02 256.256 193.377ZM255.056 198.17L253.127 197.639C252.954 198.267 252.777 198.887 252.595 199.5L254.512 200.07C254.698 199.444 254.879 198.811 255.056 198.17ZM253.624 202.889L251.727 202.257C251.52 202.88 251.307 203.493 251.09 204.097L252.972 204.774C253.195 204.154 253.412 203.526 253.624 202.889ZM251.918 207.543L250.063 206.796C249.821 207.396 249.574 207.986 249.321 208.567L251.156 209.364C251.415 208.767 251.669 208.16 251.918 207.543ZM249.912 212.063L248.115 211.186C247.832 211.765 247.544 212.333 247.249 212.891L249.018 213.824C249.322 213.247 249.62 212.66 249.912 212.063ZM247.571 216.408L245.851 215.387C245.523 215.94 245.187 216.482 244.846 217.013L246.527 218.096C246.882 217.545 247.23 216.982 247.571 216.408ZM244.85 220.544L243.234 219.366C242.859 219.881 242.477 220.384 242.088 220.875L243.656 222.116C244.062 221.604 244.46 221.08 244.85 220.544ZM241.743 224.382L240.257 223.043C239.833 223.514 239.401 223.973 238.961 224.42L240.386 225.823C240.847 225.355 241.299 224.874 241.743 224.382ZM238.236 227.866L236.908 226.37C236.437 226.788 235.958 227.194 235.47 227.589L236.727 229.144C237.239 228.73 237.742 228.305 238.236 227.866ZM234.357 230.927L233.211 229.288C232.696 229.648 232.173 229.997 231.64 230.334L232.71 232.024C233.268 231.67 233.817 231.305 234.357 230.927ZM230.15 233.525L229.197 231.766C228.647 232.064 228.087 232.352 227.519 232.628L228.394 234.427C228.988 234.138 229.573 233.837 230.15 233.525ZM225.687 235.638L224.928 233.787C224.346 234.026 223.756 234.254 223.157 234.472L223.841 236.352C224.465 236.125 225.08 235.887 225.687 235.638ZM221.023 237.286L220.448 235.37C219.845 235.551 219.235 235.723 218.615 235.885L219.122 237.819C219.763 237.651 220.397 237.474 221.023 237.286ZM178.584 126.44H176.584V125.454C176.584 125.123 176.584 124.795 176.586 124.469L178.586 124.479C178.584 124.801 178.584 125.126 178.584 125.454V126.44ZM178.624 121.592L176.625 121.548C176.639 120.886 176.658 120.236 176.681 119.597L178.679 119.667C178.657 120.297 178.639 120.939 178.624 121.592ZM178.814 116.787L176.818 116.669C176.857 116.002 176.902 115.349 176.953 114.709L178.946 114.865C178.897 115.492 178.853 116.132 178.814 116.787ZM179.22 111.992L177.233 111.767C177.309 111.095 177.393 110.44 177.484 109.8L179.464 110.082C179.375 110.702 179.294 111.339 179.22 111.992ZM179.942 107.24L177.979 106.854C178.112 106.179 178.255 105.523 178.41 104.886L180.354 105.358C180.206 105.964 180.069 106.591 179.942 107.24ZM181.146 102.584L179.249 101.95C179.473 101.279 179.714 100.631 179.973 100.008L181.82 100.775C181.581 101.352 181.356 101.954 181.146 102.584ZM183.097 98.1898L181.371 97.1793C181.739 96.5506 182.133 95.9538 182.554 95.3891L184.157 96.5855C183.782 97.0877 183.429 97.6221 183.097 98.1898ZM186.091 94.4498L184.749 92.9677C185.292 92.4749 185.866 92.0221 186.471 91.6083L187.601 93.2586C187.071 93.6214 186.568 94.018 186.091 94.4498ZM190.127 91.869L189.331 90.0345C189.976 89.7543 190.645 89.5078 191.337 89.2929L191.93 91.203C191.303 91.3975 190.703 91.6192 190.127 91.869ZM194.742 90.5377L194.404 88.5665C195.065 88.4532 195.743 88.3617 196.44 88.2906L196.643 90.2803C195.988 90.3471 195.355 90.4327 194.742 90.5377ZM199.524 90.1078C199.843 90.1008 200.167 90.0974 200.495 90.0974C200.822 90.0974 201.146 90.1008 201.465 90.1078L201.509 88.1083C201.174 88.101 200.836 88.0974 200.495 88.0974C200.153 88.0974 199.815 88.101 199.481 88.1083L199.524 90.1078ZM204.346 90.2803L204.549 88.2906C205.246 88.3617 205.924 88.4532 206.585 88.5665L206.247 90.5377C205.634 90.4327 205.001 90.3471 204.346 90.2803ZM209.059 91.203L209.652 89.2929C210.344 89.5078 211.013 89.7543 211.658 90.0345L210.862 91.869C210.286 91.6192 209.686 91.3975 209.059 91.203ZM213.388 93.2586L214.518 91.6083C215.123 92.0221 215.697 92.4749 216.241 92.9677L214.898 94.4498C214.421 94.018 213.918 93.6214 213.388 93.2586ZM216.832 96.5855L218.435 95.3891C218.856 95.9538 219.25 96.5506 219.618 97.1793L217.892 98.1898C217.56 97.6221 217.207 97.0877 216.832 96.5855ZM219.169 100.775L221.016 100.008C221.275 100.631 221.516 101.279 221.74 101.95L219.843 102.584C219.633 101.954 219.408 101.352 219.169 100.775ZM220.636 105.358L222.579 104.886C222.734 105.523 222.877 106.179 223.01 106.854L221.047 107.24C220.92 106.591 220.783 105.964 220.636 105.358ZM221.525 110.082L223.505 109.8C223.596 110.44 223.68 111.095 223.756 111.767L221.769 111.992C221.695 111.339 221.614 110.702 221.525 110.082ZM222.043 114.865L224.037 114.709C224.087 115.349 224.132 116.002 224.171 116.669L222.175 116.787C222.136 116.132 222.092 115.492 222.043 114.865ZM222.31 119.667C222.332 120.297 222.35 120.939 222.365 121.592L224.364 121.548C224.35 120.886 224.331 120.236 224.309 119.597L222.31 119.667ZM222.406 173.767H224.406V174.753C224.406 175.084 224.405 175.413 224.403 175.738L222.403 175.728C222.405 175.406 222.406 175.081 222.406 174.753V173.767ZM222.365 178.615L224.364 178.659C224.35 179.321 224.331 179.972 224.309 180.611L222.31 180.54C222.332 179.91 222.35 179.269 222.365 178.615ZM222.175 183.42L224.171 183.538C224.132 184.205 224.087 184.858 224.037 185.499L222.043 185.342C222.092 184.715 222.136 184.075 222.175 183.42ZM221.769 188.215L223.756 188.44C223.68 189.112 223.596 189.767 223.505 190.407L221.525 190.125C221.614 189.505 221.695 188.869 221.769 188.215ZM221.047 192.967L223.01 193.353C222.877 194.028 222.734 194.684 222.579 195.321L220.636 194.85C220.783 194.243 220.92 193.616 221.047 192.967ZM222.406 170.809H224.406V168.837H222.406V170.809ZM222.406 165.879H224.406V163.908H222.406V165.879ZM222.406 160.95H224.406V158.978H222.406V160.95ZM222.406 156.02H224.406V154.048H222.406V156.02ZM222.406 151.09H224.406V149.118H222.406V151.09ZM222.406 146.16H224.406V144.188H222.406V146.16ZM222.406 141.23H224.406V139.258H222.406V141.23ZM222.406 136.3H224.406V134.328H222.406V136.3ZM222.406 131.37H224.406V129.398H222.406V131.37ZM222.406 126.44H224.406V125.454C224.406 125.123 224.405 124.795 224.403 124.469L222.403 124.479C222.405 124.801 222.406 125.126 222.406 125.454V126.44ZM178.584 129.398H176.584V131.37H178.584V129.398ZM178.584 134.328H176.584V136.3H178.584V134.328ZM178.584 139.258H176.584V141.23H178.584V139.258ZM178.584 144.188H176.584V146.16H178.584V144.188ZM178.584 149.118H176.584V151.09H178.584V149.118Z" fill="#CACED3"></path>
<path d="M260 53L267 46L274 53L267 60L260 53Z" fill="#F8D33A"></path>
<path d="M16 87L22 81L28 87L22 93L16 87Z" fill="#F8D33A"></path>
<path d="M125 223L129 219L133 223L129 227L125 223Z" fill="#F8D33A"></path>
<path d="M338 275L347 266L356 275L347 284L338 275Z" fill="#F8D33A"></path>
<path fill-rule="evenodd" clip-rule="evenodd" d="M158.724 178.549L146.851 190.421L154.306 197.875L166.228 185.946L158.724 178.549Z" fill="#5E6673"></path>
<path fill-rule="evenodd" clip-rule="evenodd" d="M212.269 253.649L189.145 230.525L196.947 222.723L220.071 245.847L212.269 253.649Z" fill="url(#icon-404_paint2_linear)"></path>
<path fill-rule="evenodd" clip-rule="evenodd" d="M166.84 209.131L183.305 209.13L197.239 223.064L186.094 234.21L176.776 224.893L166.84 224.893L166.84 209.131Z" fill="#5E6673"></path>
<g style="mix-blend-mode:soft-light" opacity="0.6">
<path fill-rule="evenodd" clip-rule="evenodd" d="M166.84 209.131L183.305 209.13L197.239 223.064L186.094 234.21L176.776 224.893L166.84 224.893L166.84 209.131Z" fill="black"></path>
</g>
<path fill-rule="evenodd" clip-rule="evenodd" d="M163.489 241.675V232.926H174.523V241.675C174.523 244.601 173.361 247.407 171.291 249.477L161.345 259.423L153.543 251.621L163.489 241.675Z" fill="url(#icon-404_paint3_linear)"></path>
<path d="M141.364 263.852L153.704 251.513L161.519 259.328L156.964 263.884L164.663 271.583L149.095 271.583L141.364 263.852Z" fill="#76808F"></path>
<g style="mix-blend-mode:soft-light" opacity="0.6">
<path d="M141.364 263.852L153.704 251.513L161.519 259.328L156.964 263.884L164.663 271.583L149.095 271.583L141.364 263.852Z" fill="url(#icon-404_paint4_linear)"></path>
</g>
<path fill-rule="evenodd" clip-rule="evenodd" d="M174.523 214.012L174.523 234.504L158.76 234.504L158.76 214.012L174.523 214.012Z" fill="#5E6673"></path>
<g style="mix-blend-mode:soft-light" opacity="0.6">
<path fill-rule="evenodd" clip-rule="evenodd" d="M174.523 214.012L174.523 234.504L158.76 234.504L158.76 214.012L174.523 214.012Z" fill="black"></path>
</g>
<path d="M170.044 178.548L158.724 178.544V214.165L191.314 214.165L191.314 188.484C191.314 183.26 187.285 178.978 182.165 178.575L176.118 184.623L170.044 178.548Z" fill="#5E6673"></path>
<g style="mix-blend-mode:soft-light" opacity="0.6">
<path d="M170.044 178.548L158.724 178.544V214.165L191.314 214.165L191.314 188.484C191.314 183.26 187.285 178.978 182.165 178.575L176.118 184.623L170.044 178.548Z" fill="url(#icon-404_paint5_linear)"></path>
</g>
<path d="M224.185 265.54L239.779 249.935L224.042 249.935L220.038 245.932L212.308 253.662L224.185 265.54Z" fill="#76808F"></path>
<g style="mix-blend-mode:soft-light" opacity="0.6">
<path d="M224.188 265.539L239.782 249.934L224.045 249.934L220.041 245.931L212.311 253.661L224.188 265.539Z" fill="url(#icon-404_paint6_linear)"></path>
</g>
<path d="M168.435 156.242C172.432 152.243 178.948 152.278 182.988 156.321C187.029 160.364 187.064 166.883 183.067 170.882C179.069 174.882 172.554 174.847 168.513 170.804C164.473 166.761 164.438 160.242 168.435 156.242Z" fill="url(#icon-404_paint7_linear)"></path>
<path d="M182.995 156.32C178.954 152.278 172.439 152.242 168.441 156.242C164.444 160.241 164.479 166.761 168.52 170.803L182.995 156.32Z" fill="#76808F"></path>
<path fill-rule="evenodd" clip-rule="evenodd" d="M187.658 152.666L169.024 171.311L167.841 170.127L186.476 151.482L187.658 152.666Z" fill="#76808F"></path>
<path d="M215.6 217.791L204.832 223.829V192.87L215.6 186.832V217.791Z" fill="#929AA5"></path>
<g style="mix-blend-mode:soft-light" opacity="0.6">
<path d="M215.6 217.791L204.832 223.829V192.87L215.6 186.832V217.791Z" fill="url(#icon-404_paint8_linear)"></path>
</g>
<path d="M194.064 217.791L204.832 223.829V192.87L194.064 186.832V217.791Z" fill="#929AA5"></path>
<path d="M194.072 217.786L183.304 223.824V192.865L194.072 186.827V217.786Z" fill="#929AA5"></path>
<g style="mix-blend-mode:soft-light" opacity="0.6">
<path d="M194.072 217.786L183.304 223.824V192.865L194.072 186.827V217.786Z" fill="url(#icon-404_paint9_linear)"></path>
</g>
<path d="M172.536 217.786L183.304 223.824V192.865L172.536 186.827V217.786Z" fill="#929AA5"></path>
<path d="M164.484 204.081L172.282 211.883L180.08 204.081L172.282 196.279L164.484 204.081Z" fill="url(#icon-404_paint10_linear)"></path>
<path d="M207.629 204.08L215.427 211.882L223.225 204.08L215.427 196.278L207.629 204.08Z" fill="url(#icon-404_paint11_linear)"></path>
<path d="M147.657 191.226L154.306 197.875L154.618 197.563L154.656 197.601L151.249 201.012L162.317 201.012L162.317 210.472L151.249 210.472C142.826 210.472 138.607 200.282 144.564 194.322L147.657 191.226Z" fill="url(#icon-404_paint12_linear)"></path>
<path d="M195.915 156.686H204.852V165.624H195.915V156.686Z" fill="url(#icon-404_paint13_linear)"></path>
<path fill-rule="evenodd" clip-rule="evenodd" d="M200.383 120.937C196.681 120.937 193.68 123.938 193.68 127.64V129.875H184.743V127.64C184.743 119.002 191.746 112 200.383 112C209.021 112 216.024 119.002 216.024 127.64C216.024 131.958 214.268 135.874 211.443 138.7L204.852 145.29V149.984H195.915V141.588L205.123 132.38C206.341 131.162 207.086 129.492 207.086 127.64C207.086 123.938 204.085 120.937 200.383 120.937Z" fill="url(#icon-404_paint14_linear)"></path>
<path d="M212 271H240V273H212V271Z" fill="#E6E8EA"></path>
<path fill-rule="evenodd" clip-rule="evenodd" d="M281 85.5859L279.593 86.993L280.3 87.7002L280.293 87.7073L280.993 88.4073L281 88.4002L281.007 88.4073L281.707 87.7073L281.7 87.7002L282.407 86.993L281 85.5859ZM283.093 90.5073L284.493 91.9073L285.907 90.493L284.507 89.093L283.093 90.5073ZM277.507 91.9073L278.907 90.5073L277.493 89.093L276.093 90.493L277.507 91.9073ZM286.593 94.0073L287.293 94.7073L287.3 94.7002L288.007 95.4073L289.414 94.0002L288.007 92.593L287.3 93.3002L287.293 93.293L286.593 93.993L286.6 94.0002L286.593 94.0073ZM274.707 94.7073L275.407 94.0073L275.4 94.0002L275.407 93.993L274.707 93.293L274.7 93.3002L273.993 92.593L272.586 94.0002L273.993 95.4073L274.7 94.7002L274.707 94.7073ZM284.493 96.093L283.093 97.493L284.507 98.9073L285.907 97.5073L284.493 96.093ZM278.907 97.493L277.507 96.093L276.093 97.5073L277.493 98.9073L278.907 97.493ZM280.993 99.593L280.293 100.293L280.3 100.3L279.593 101.007L281 102.414L282.407 101.007L281.7 100.3L281.707 100.293L281.007 99.593L281 99.6002L280.993 99.593Z" fill="#CACED3"></path>
<path fill-rule="evenodd" clip-rule="evenodd" d="M284.5 260.414L285.867 259.047L285.16 258.34L285.207 258.293L284.547 257.633L284.5 257.68L284.453 257.633L283.793 258.293L283.84 258.34L283.133 259.047L284.5 260.414ZM282.567 255.653L281.247 254.333L279.833 255.747L281.153 257.067L282.567 255.653ZM287.753 254.333L286.433 255.653L287.847 257.067L289.167 255.747L287.753 254.333ZM279.267 252.353L277.947 251.033L276.533 252.447L277.853 253.767L279.267 252.353ZM291.053 251.033L289.733 252.353L291.147 253.767L292.467 252.447L291.053 251.033ZM275.967 249.053L274.647 247.733L273.233 249.147L274.553 250.467L275.967 249.053ZM294.353 247.733L293.033 249.053L294.447 250.467L295.767 249.147L294.353 247.733ZM272.667 245.753L271.347 244.433L269.933 245.847L271.253 247.167L272.667 245.753ZM297.653 244.433L296.333 245.753L297.747 247.167L299.067 245.847L297.653 244.433ZM269.367 242.453L268.707 241.793L268.66 241.84L267.953 241.133L266.586 242.5L267.953 243.867L268.66 243.16L268.707 243.207L269.367 242.547L269.32 242.5L269.367 242.453ZM300.293 241.793L299.633 242.453L299.68 242.5L299.633 242.547L300.293 243.207L300.34 243.16L301.047 243.867L302.414 242.5L301.047 241.133L300.34 241.84L300.293 241.793ZM271.347 240.567L272.667 239.247L271.253 237.833L269.933 239.153L271.347 240.567ZM296.333 239.247L297.653 240.567L299.067 239.153L297.747 237.833L296.333 239.247ZM274.647 237.267L275.967 235.947L274.553 234.533L273.233 235.853L274.647 237.267ZM293.033 235.947L294.353 237.267L295.767 235.853L294.447 234.533L293.033 235.947ZM277.947 233.967L279.267 232.647L277.853 231.233L276.533 232.553L277.947 233.967ZM289.733 232.647L291.053 233.967L292.467 232.553L291.147 231.233L289.733 232.647ZM281.247 230.667L282.567 229.347L281.153 227.933L279.833 229.253L281.247 230.667ZM286.433 229.347L287.753 230.667L289.167 229.253L287.847 227.933L286.433 229.347ZM284.547 227.367L285.207 226.707L285.16 226.66L285.867 225.953L284.5 224.586L283.133 225.953L283.84 226.66L283.793 226.707L284.453 227.367L284.5 227.32L284.547 227.367Z" fill="#CACED3"></path>
<path fill-rule="evenodd" clip-rule="evenodd" d="M138 40.5859L136.626 41.9597L137.333 42.6668L137.293 42.7073L137.959 43.3739L138 43.3335L138.04 43.3739L138.707 42.7073L138.667 42.6668L139.374 41.9597L138 40.5859ZM134.707 46.7073L136.04 45.3739L134.626 43.9597L133.293 45.293L134.707 46.7073ZM139.959 45.3739L141.293 46.7073L142.707 45.293L141.374 43.9597L139.959 45.3739ZM131.374 50.0406L132.707 48.7073L131.293 47.293L129.959 48.6264L131.374 50.0406ZM143.293 48.7073L144.626 50.0406L146.04 48.6264L144.707 47.293L143.293 48.7073ZM146.626 52.0406L147.293 52.7073L147.333 52.6668L148.04 53.3739L149.414 52.0002L148.04 50.6264L147.333 51.3335L147.293 51.293L146.626 51.9597L146.667 52.0002L146.626 52.0406ZM128.707 52.7073L129.374 52.0406L129.333 52.0002L129.374 51.9597L128.707 51.293L128.667 51.3335L127.959 50.6264L126.586 52.0002L127.959 53.3739L128.667 52.6668L128.707 52.7073ZM144.626 53.9597L143.293 55.293L144.707 56.7073L146.04 55.3739L144.626 53.9597ZM132.707 55.293L131.374 53.9597L129.959 55.3739L131.293 56.7073L132.707 55.293ZM136.04 58.6264L134.707 57.293L133.293 58.7073L134.626 60.0406L136.04 58.6264ZM141.293 57.293L139.959 58.6264L141.374 60.0406L142.707 58.7073L141.293 57.293ZM137.959 60.6264L137.293 61.293L137.333 61.3335L136.626 62.0406L138 63.4144L139.374 62.0406L138.667 61.3335L138.707 61.293L138.04 60.6264L138 60.6668L137.959 60.6264Z" fill="#CACED3"></path>
<defs>
<linearGradient id="icon-404_paint0_linear" x1="105.764" y1="200.954" x2="105.764" y2="80.2173" gradientUnits="userSpaceOnUse">
<stop stop-color="#F5F5F5"></stop>
<stop offset="1" stop-color="#E6E8EA"></stop>
</linearGradient>
<linearGradient id="icon-404_paint1_linear" x1="105.764" y1="200.954" x2="105.764" y2="80.2173" gradientUnits="userSpaceOnUse">
<stop stop-color="#F5F5F5"></stop>
<stop offset="1" stop-color="#E6E8EA"></stop>
</linearGradient>
<linearGradient id="icon-404_paint2_linear" x1="204.608" y1="222.723" x2="204.608" y2="253.649" gradientUnits="userSpaceOnUse">
<stop stop-color="#F0B90B"></stop>
<stop offset="1" stop-color="#F8D33A"></stop>
</linearGradient>
<linearGradient id="icon-404_paint3_linear" x1="164.033" y1="232.926" x2="164.033" y2="259.423" gradientUnits="userSpaceOnUse">
<stop stop-color="#F0B90B"></stop>
<stop offset="1" stop-color="#F8D33A"></stop>
</linearGradient>
<linearGradient id="icon-404_paint4_linear" x1="164.671" y1="271.544" x2="149.106" y2="255.978" gradientUnits="userSpaceOnUse">
<stop></stop>
<stop offset="1" stop-opacity="0"></stop>
</linearGradient>
<linearGradient id="icon-404_paint5_linear" x1="191.468" y1="215.194" x2="158.761" y2="215.194" gradientUnits="userSpaceOnUse">
<stop></stop>
<stop offset="1" stop-opacity="0"></stop>
</linearGradient>
<linearGradient id="icon-404_paint6_linear" x1="224.572" y1="265.634" x2="224.565" y2="251.842" gradientUnits="userSpaceOnUse">
<stop></stop>
<stop offset="1" stop-opacity="0"></stop>
</linearGradient>
<linearGradient id="icon-404_paint7_linear" x1="168.513" y1="170.804" x2="182.996" y2="156.329" gradientUnits="userSpaceOnUse">
<stop stop-color="#F0B90B"></stop>
<stop offset="1" stop-color="#F8D33A"></stop>
</linearGradient>
<linearGradient id="icon-404_paint8_linear" x1="210.216" y1="186.832" x2="210.216" y2="223.829" gradientUnits="userSpaceOnUse">
<stop stop-opacity="0"></stop>
<stop offset="1"></stop>
</linearGradient>
<linearGradient id="icon-404_paint9_linear" x1="188.688" y1="186.827" x2="188.688" y2="223.824" gradientUnits="userSpaceOnUse">
<stop stop-opacity="0"></stop>
<stop offset="1"></stop>
</linearGradient>
<linearGradient id="icon-404_paint10_linear" x1="168.381" y1="200.18" x2="176.183" y2="207.982" gradientUnits="userSpaceOnUse">
<stop stop-color="#F0B90B"></stop>
<stop offset="1" stop-color="#F8D33A"></stop>
</linearGradient>
<linearGradient id="icon-404_paint11_linear" x1="211.526" y1="200.179" x2="219.328" y2="207.981" gradientUnits="userSpaceOnUse">
<stop stop-color="#F0B90B"></stop>
<stop offset="1" stop-color="#F8D33A"></stop>
</linearGradient>
<linearGradient id="icon-404_paint12_linear" x1="152.046" y1="191.226" x2="152.046" y2="210.472" gradientUnits="userSpaceOnUse">
<stop stop-color="#F0B90B"></stop>
<stop offset="1" stop-color="#F8D33A"></stop>
</linearGradient>
<linearGradient id="icon-404_paint13_linear" x1="200.383" y1="112" x2="200.383" y2="165.624" gradientUnits="userSpaceOnUse">
<stop stop-color="#F0B90B"></stop>
<stop offset="1" stop-color="#F8D33A"></stop>
</linearGradient>
<linearGradient id="icon-404_paint14_linear" x1="200.383" y1="112" x2="200.383" y2="165.624" gradientUnits="userSpaceOnUse">
<stop stop-color="#F0B90B"></stop>
<stop offset="1" stop-color="#F8D33A"></stop>
</linearGradient>
</defs>
</svg>
