<svg width="1440" height="1024" viewBox="0 0 1440 1024" fill="none" xmlns="http://www.w3.org/2000/svg">
<g clip-path="url(#clip0_143_532)">
<rect width="1440" height="1024" fill="#1E2329"/>
<path opacity="0.6" fill-rule="evenodd" clip-rule="evenodd" d="M-400 2250.29L-220.211 2430L1290 920.498L-220.211 -589L-400 -409.297L930.422 920.498L-400 2250.29Z" fill="url(#paint0_linear_143_532)"/>
<g opacity="0.3">
<path d="M1188.44 1010.2L1196.72 1018.48L1676.27 538.93L1667.99 530.65L1188.44 1010.2Z" fill="#76808F"/>
<path d="M1177.39 999.15L1185.67 1007.43L1665.22 527.879L1656.94 519.599L1177.39 999.15Z" fill="#76808F"/>
<path d="M1166.32 988.082L1174.6 996.362L1654.15 516.812L1645.87 508.532L1166.32 988.082Z" fill="#76808F"/>
<path d="M1155.27 977.031L1163.55 985.311L1643.1 505.761L1634.82 497.481L1155.27 977.031Z" fill="#76808F"/>
<path d="M1144.2 965.965L1152.48 974.244L1632.03 494.694L1623.75 486.415L1144.2 965.965Z" fill="#76808F"/>
<path d="M1133.14 954.897L1141.42 963.177L1620.97 483.627L1612.69 475.347L1133.14 954.897Z" fill="#76808F"/>
<path d="M1122.09 943.847L1130.37 952.127L1609.92 472.577L1601.64 464.297L1122.09 943.847Z" fill="#76808F"/>
<path d="M1111.02 932.78L1119.3 941.06L1598.85 461.51L1590.57 453.23L1111.02 932.78Z" fill="#76808F"/>
<path d="M1099.97 921.73L1108.25 930.01L1587.8 450.46L1579.52 442.18L1099.97 921.73Z" fill="#76808F"/>
<path d="M1088.9 910.663L1097.18 918.942L1576.73 439.392L1568.45 431.113L1088.9 910.663Z" fill="#76808F"/>
<path d="M1077.84 899.596L1086.11 907.876L1565.67 428.326L1557.39 420.046L1077.84 899.596Z" fill="#76808F"/>
<path d="M1066.79 888.546L1075.07 896.826L1554.62 417.275L1546.34 408.996L1066.79 888.546Z" fill="#76808F"/>
<path d="M684.764 1234.21L699.664 1249.11L1543.06 405.719L1528.16 390.819L684.764 1234.21Z" fill="url(#paint1_linear_143_532)"/>
<path d="M661.602 1211.05L676.501 1225.95L1519.9 382.556L1505 367.656L661.602 1211.05Z" fill="url(#paint2_linear_143_532)"/>
<path d="M638.42 1187.87L653.32 1202.77L1496.72 359.375L1481.82 344.475L638.42 1187.87Z" fill="url(#paint3_linear_143_532)"/>
<path d="M615.258 1164.71L630.158 1179.61L1473.55 336.213L1458.65 321.313L615.258 1164.71Z" fill="url(#paint4_linear_143_532)"/>
<path d="M591.801 1141.25L606.701 1156.15L1450.1 312.756L1435.2 297.856L591.801 1141.25Z" fill="url(#paint5_linear_143_532)"/>
<path d="M821.823 1371.27L824.61 1374.06L1188.46 1010.22L1185.67 1007.43L821.823 1371.27Z" fill="#474D57"/>
<path d="M832.873 1382.33L835.661 1385.11L1199.51 1021.27L1196.72 1018.48L832.873 1382.33Z" fill="#474D57"/>
<path d="M810.756 1360.21L813.543 1363L1177.39 999.151L1174.6 996.363L810.756 1360.21Z" fill="#474D57"/>
<path d="M799.689 1349.14L802.477 1351.93L1166.32 988.084L1163.53 985.296L799.689 1349.14Z" fill="#474D57"/>
<path d="M788.638 1338.09L791.426 1340.88L1155.27 977.033L1152.48 974.245L788.638 1338.09Z" fill="#474D57"/>
<path d="M777.571 1327.02L780.359 1329.81L1144.2 965.965L1141.42 963.178L777.571 1327.02Z" fill="#474D57"/>
<path d="M766.522 1315.97L769.309 1318.76L1133.15 954.916L1130.37 952.129L766.522 1315.97Z" fill="#474D57"/>
<path d="M755.454 1304.91L758.241 1307.69L1122.09 943.848L1119.3 941.061L755.454 1304.91Z" fill="#474D57"/>
<path d="M744.387 1293.84L747.174 1296.63L1111.02 932.781L1108.23 929.993L744.387 1293.84Z" fill="#474D57"/>
<path d="M733.337 1282.79L736.125 1285.58L1099.97 921.731L1097.18 918.944L733.337 1282.79Z" fill="#474D57"/>
<path d="M722.269 1271.72L725.057 1274.51L1088.9 910.663L1086.11 907.876L722.269 1271.72Z" fill="#474D57"/>
<path d="M711.219 1260.67L714.006 1263.46L1077.85 899.613L1075.06 896.826L711.219 1260.67Z" fill="#474D57"/>
<path d="M700.152 1249.6L702.94 1252.39L1066.78 888.547L1064 885.759L700.152 1249.6Z" fill="#474D57"/>
<path d="M623.289 1743.74L631.569 1752.02L1520.05 863.544L1511.77 855.265L623.289 1743.74Z" fill="#474D57"/>
<path d="M600.11 1720.56L608.39 1728.84L1496.87 840.364L1488.59 832.085L600.11 1720.56Z" fill="#474D57"/>
<path d="M577.031 1697.48L585.31 1705.76L1473.79 817.285L1465.51 809.006L577.031 1697.48Z" fill="#474D57"/>
<path d="M553.851 1674.3L562.13 1682.58L1450.61 794.106L1442.33 785.826L553.851 1674.3Z" fill="#474D57"/>
</g>
</g>
<defs>
<linearGradient id="paint0_linear_143_532" x1="1231.54" y1="920.5" x2="53.9504" y2="922.279" gradientUnits="userSpaceOnUse">
<stop stop-color="white" stop-opacity="0.1"/>
<stop offset="1" stop-color="white" stop-opacity="0"/>
</linearGradient>
<linearGradient id="paint1_linear_143_532" x1="692.214" y1="1241.66" x2="1535.61" y2="398.269" gradientUnits="userSpaceOnUse">
<stop stop-color="#F0B90B"/>
<stop offset="1" stop-color="#F8D33A"/>
</linearGradient>
<linearGradient id="paint2_linear_143_532" x1="669.051" y1="1218.5" x2="1512.45" y2="375.106" gradientUnits="userSpaceOnUse">
<stop stop-color="#F0B90B"/>
<stop offset="1" stop-color="#F8D33A"/>
</linearGradient>
<linearGradient id="paint3_linear_143_532" x1="645.87" y1="1195.32" x2="1489.27" y2="351.925" gradientUnits="userSpaceOnUse">
<stop stop-color="#F0B90B"/>
<stop offset="1" stop-color="#F8D33A"/>
</linearGradient>
<linearGradient id="paint4_linear_143_532" x1="622.708" y1="1172.16" x2="1466.1" y2="328.763" gradientUnits="userSpaceOnUse">
<stop stop-color="#F0B90B"/>
<stop offset="1" stop-color="#F8D33A"/>
</linearGradient>
<linearGradient id="paint5_linear_143_532" x1="599.251" y1="1148.7" x2="1442.65" y2="305.306" gradientUnits="userSpaceOnUse">
<stop stop-color="#F0B90B"/>
<stop offset="1" stop-color="#F8D33A"/>
</linearGradient>
<clipPath id="clip0_143_532">
<rect width="1440" height="1024" fill="white"/>
</clipPath>
</defs>
</svg>
