<svg width="120" height="120" viewBox="0 0 120 120" fill="none" xmlns="http://www.w3.org/2000/svg">
<path d="M0 60C0 26.8629 26.8629 0 60 0C93.1371 0 120 26.8629 120 60C120 93.1371 93.1371 120 60 120C26.8629 120 0 93.1371 0 60Z" fill="url(#paint0_linear_139_4)"/>
<path fill-rule="evenodd" clip-rule="evenodd" d="M64.9913 26.0589L52.0139 39.0363L40.0346 39.0363L12.5823 66.4887L53.5113 66.4887L53.5111 107.418L80.9635 79.9654L80.9637 67.9861L93.9411 55.0086V26.0589L64.9913 26.0589ZM61.4974 58.5025C65.3567 62.3618 71.6139 62.3618 75.4732 58.5025C79.3325 54.6432 79.3325 48.3861 75.4732 44.5268C71.6139 40.6675 65.3567 40.6675 61.4974 44.5268C57.6381 48.3861 57.6381 54.6432 61.4974 58.5025Z" fill="#0B0E11"/>
<path d="M31.5494 73.4765L46.5234 73.4765L46.5234 88.4506L26.0589 93.941L31.5494 73.4765Z" fill="#0B0E11"/>
<defs>
<linearGradient id="paint0_linear_139_4" x1="60" y1="120" x2="60" y2="0" gradientUnits="userSpaceOnUse">
<stop stop-color="#F0B90B"/>
<stop offset="1" stop-color="#F8D33A"/>
</linearGradient>
</defs>
</svg>
