<svg width="71" height="27" viewBox="0 0 71 27" fill="none" xmlns="http://www.w3.org/2000/svg">
<path d="M9.09969 7.6623V7.63901C9.09969 6.26492 8.35792 5.56623 7.17572 5.10044C7.91749 4.68122 8.52018 4.02911 8.52018 2.86463V2.84134C8.52018 1.21106 7.22208 0.163028 5.13586 0.163028H0.360718V10.4804H5.25176C7.56979 10.4804 9.09969 9.54876 9.09969 7.6623ZM6.27169 3.26055C6.27169 4.02911 5.64582 4.35517 4.64907 4.35517H2.56284V2.16594H4.78815C5.73854 2.16594 6.27169 2.53857 6.27169 3.23726V3.26055ZM6.8512 7.38282C6.8512 8.15138 6.24851 8.50073 5.25176 8.50073H2.56284V6.24163H5.18222C6.34123 6.24163 6.8512 6.66084 6.8512 7.35953V7.38282ZM13.8285 10.4804V0.163028H11.58V10.4804H13.8285ZM25.9749 10.4804V0.163028H23.7496V6.52111L18.9281 0.163028H16.8419V10.4804H19.0672V3.93595L24.051 10.5036H25.9749V10.4804ZM38.4923 10.4804L34.088 0.0931586H32.0018L27.5976 10.4804H29.8924L30.8428 8.17467H35.1775L36.1279 10.4804H38.4923ZM34.3894 6.17176H31.6541L33.0217 2.81805L34.3894 6.17176ZM49.2479 10.4804V0.163028H47.0226V6.52111L42.2011 0.163028H40.1149V10.4804H42.3402V3.93595L47.324 10.5036H49.2479V10.4804ZM60.9308 8.82678L59.4936 7.35953C58.6823 8.1048 57.9637 8.5706 56.8047 8.5706C55.043 8.5706 53.8376 7.10335 53.8376 5.33333V5.31004C53.8376 3.54003 55.0894 2.09607 56.8047 2.09607C57.8246 2.09607 58.636 2.53857 59.4241 3.26055L60.8613 1.5837C59.9109 0.628821 58.7519 0 56.8047 0C53.6522 0 51.4501 2.39884 51.4501 5.33333V5.35662C51.4501 8.31441 53.6986 10.6667 56.712 10.6667C58.6823 10.6667 59.8645 9.96798 60.9308 8.82678ZM70.5506 10.4804V8.45415H64.9874V6.28821H69.832V4.26201H64.9874V2.16594H70.4811V0.139738H62.7389V10.4571H70.5506V10.4804Z" fill="#F0B90B"/>
<path d="M6.34542 15.4246H4.72129L0.333313 26.0912H2.1284L3.15416 23.5343H7.86981L8.88133 26.0912H10.7334L6.34542 15.4246ZM7.22871 21.8851H3.79526L5.50486 17.6487L7.22871 21.8851Z" fill="#0B0E11"/>
<path d="M21.4617 20.7806C21.4617 17.7848 19.2962 15.5002 16.1619 15.5002H12.4436V26.0912H16.1619C19.2962 26.0912 21.4617 23.7763 21.4617 20.7806ZM19.6239 20.8108C19.6239 22.8988 18.2562 24.3967 16.1619 24.3967H14.1959V17.1948H16.1619C18.2562 17.1948 19.6239 18.7229 19.6239 20.8108Z" fill="#0B0E11"/>
<path d="M31.6371 18.496V26.0912H33.3894V15.5002H31.5231L28.4886 20.5082L25.454 15.5002H23.5877V26.0912H25.3115V18.5262L28.4316 23.4889H28.4886L31.6371 18.496Z" fill="#0B0E11"/>
<path d="M36.0559 15.5002V26.0912H37.8082V15.5002H36.0559Z" fill="#0B0E11"/>
<path d="M47.4444 22.8231L42.1019 15.5002H40.4778V26.0912H42.2017V18.5565L47.7009 26.0912H49.1683V15.5002H47.4444V22.8231Z" fill="#0B0E11"/>
</svg>
