<svg width="40" height="40" viewBox="0 0 40 40" fill="none" xmlns="http://www.w3.org/2000/svg">
<path d="M0 20C0 8.95431 8.95431 -1.49012e-07 20 -1.49012e-07C31.0457 -1.49012e-07 40 8.95431 40 20C40 31.0457 31.0457 40 20 40C8.95431 40 0 31.0457 0 20Z" fill="url(#paint0_linear_1302)"/>
<path fill-rule="evenodd" clip-rule="evenodd" d="M21.6638 8.68625L17.338 13.012L13.3449 13.0121L4.19409 22.1629L17.8371 22.1628L17.837 35.8059L26.9878 26.6551L26.9879 22.662L31.3137 18.3362L31.3137 8.68625L21.6638 8.68625ZM20.4991 19.5008C21.7856 20.7872 23.8713 20.7872 25.1577 19.5008C26.4442 18.2144 26.4442 16.1286 25.1577 14.8422C23.8713 13.5558 21.7856 13.5558 20.4991 14.8422C19.2127 16.1286 19.2127 18.2144 20.4991 19.5008Z" fill="#0B0E11"/>
<path d="M10.5165 24.4921L15.5078 24.4921L15.5078 29.4835L8.6863 31.3136L10.5165 24.4921Z" fill="#0B0E11"/>
<defs>
<linearGradient id="paint0_linear_1302" x1="20" y1="40" x2="20" y2="0" gradientUnits="userSpaceOnUse">
<stop stop-color="#F0B90B"/>
<stop offset="1" stop-color="#F8D33A"/>
</linearGradient>
</defs>
</svg>
